<?xml version="1.0" encoding="utf-8"?>
<!-- Generator: Adobe Illustrator 16.0.0, SVG Export Plug-In . SVG Version: 6.00 Build 0)  -->
<!DOCTYPE svg PUBLIC "-//W3C//DTD SVG 1.1//EN" "http://www.w3.org/Graphics/SVG/1.1/DTD/svg11.dtd">
<svg version="1.1" xmlns="http://www.w3.org/2000/svg" xmlns:xlink="http://www.w3.org/1999/xlink" x="0px" y="0px" width="512px"
	 height="512px" viewBox="1128.549 -1191.607 512 512" enable-background="new 1128.549 -1191.607 512 512" xml:space="preserve">
<g id="Layer_1">
</g>
<g id="Layer_2">
	<g>
		<rect x="1151.67" y="-850.259" fill="#55A2F0" width="461.483" height="29.847"/>
		<g>
			<path fill="#55A2F0" d="M1356.488-1007.187h-22.662c-1.419,0-2.565-1.149-2.565-2.566v-22.663c0-1.418,1.146-2.565,2.565-2.565
				h22.662c1.418,0,2.565,1.147,2.565,2.565v22.663C1359.054-1008.336,1357.906-1007.187,1356.488-1007.187z M1336.392-1012.318
				h17.531v-17.532h-17.531V-1012.318z"/>
		</g>
		<g>
			<path fill="#55A2F0" d="M1403.524-1007.187h-22.663c-1.418,0-2.565-1.149-2.565-2.566v-22.663c0-1.418,1.147-2.565,2.565-2.565
				h22.663c1.418,0,2.565,1.147,2.565,2.565v22.663C1406.09-1008.336,1404.942-1007.187,1403.524-1007.187z M1383.427-1012.318
				h17.531v-17.532h-17.531V-1012.318z"/>
		</g>
		<g>
			<path fill="#55A2F0" d="M1356.488-969.559h-22.662c-1.419,0-2.565-1.149-2.565-2.565v-22.663c0-1.418,1.146-2.565,2.565-2.565
				h22.662c1.418,0,2.565,1.147,2.565,2.565v22.663C1359.054-970.708,1357.906-969.559,1356.488-969.559z M1336.392-974.69h17.531
				v-17.531h-17.531V-974.69z"/>
		</g>
		<g>
			<path fill="#55A2F0" d="M1403.524-969.559h-22.663c-1.418,0-2.565-1.149-2.565-2.565v-22.663c0-1.418,1.147-2.565,2.565-2.565
				h22.663c1.418,0,2.565,1.147,2.565,2.565v22.663C1406.09-970.708,1404.942-969.559,1403.524-969.559z M1383.427-974.69h17.531
				v-17.531h-17.531V-974.69z"/>
		</g>
		<g>
			<path fill="#55A2F0" d="M1356.488-931.93h-22.662c-1.419,0-2.565-1.149-2.565-2.565v-22.663c0-1.418,1.146-2.565,2.565-2.565
				h22.662c1.418,0,2.565,1.147,2.565,2.565v22.663C1359.054-933.08,1357.906-931.93,1356.488-931.93z M1336.392-937.062h17.531
				v-17.532h-17.531V-937.062z"/>
		</g>
		<g>
			<path fill="#55A2F0" d="M1403.524-931.93h-22.663c-1.418,0-2.565-1.149-2.565-2.565v-22.663c0-1.418,1.147-2.565,2.565-2.565
				h22.663c1.418,0,2.565,1.147,2.565,2.565v22.663C1406.09-933.08,1404.942-931.93,1403.524-931.93z M1383.427-937.062h17.531
				v-17.532h-17.531V-937.062z"/>
		</g>
		<g>
			<path fill="#55A2F0" d="M1356.488-894.302h-22.662c-1.419,0-2.565-1.149-2.565-2.565v-22.662c0-1.418,1.146-2.566,2.565-2.566
				h22.662c1.418,0,2.565,1.147,2.565,2.566v22.662C1359.054-895.451,1357.906-894.302,1356.488-894.302z M1336.392-899.433h17.531
				v-17.531h-17.531V-899.433z"/>
		</g>
		<g>
			<path fill="#55A2F0" d="M1403.524-894.302h-22.663c-1.418,0-2.565-1.149-2.565-2.565v-22.662c0-1.418,1.147-2.566,2.565-2.566
				h22.663c1.418,0,2.565,1.147,2.565,2.566v22.662C1406.09-895.451,1404.942-894.302,1403.524-894.302z M1383.427-899.433h17.531
				v-17.531h-17.531V-899.433z"/>
		</g>
		<g>
			<path fill="#55A2F0" d="M1508.979-959.75c2.836-3.554,8.733-10.948,11.665-19.459c3.887-11.279,1.383-21.014-7.239-28.154
				c-2.954-2.447-8.214-5.06-14.11-5.06c-5.462,0-11.209,2.598-14.238,5.011c-8.635,6.885-11.09,16.573-7.104,28.014
				c2.988,8.575,8.876,16.083,11.707,19.689c0.517,0.66,1.006,1.281,1.184,1.545c1.889,2.79,3.509,5.77,4.292,7.265h-3.825
				c-1.125,0-2.037,0.912-2.037,2.037c0,1.128,0.912,2.04,2.037,2.04h15.631c1.126,0,2.039-0.912,2.039-2.04
				c0-1.125-0.913-2.037-2.039-2.037h-3.489c0.783-1.497,2.405-4.475,4.294-7.265C1507.923-958.426,1508.46-959.098,1508.979-959.75
				z M1499.294-951.725c0,0-2.231-4.523-5.074-8.724c-2.525-3.73-25.589-28.652-6.623-43.773c2.44-1.943,7.31-4.123,11.697-4.123
				c4.759,0,9.109,2.134,11.512,4.123c19.151,15.861-3.91,40.043-6.438,43.773C1501.525-956.249,1499.294-951.725,1499.294-951.725z
				"/>
			<path fill="#55A2F0" d="M1499.261-996.26c4.296,0,7.793,3.498,7.793,7.795c0,4.296-3.497,7.793-7.793,7.793
				c-4.3,0-7.796-3.498-7.796-7.793C1491.465-992.763,1494.961-996.26,1499.261-996.26 M1499.261-1000.337
				c-6.558,0-11.873,5.315-11.873,11.873c0,6.556,5.315,11.873,11.873,11.873c6.556,0,11.871-5.316,11.871-11.873
				C1511.132-995.022,1505.816-1000.337,1499.261-1000.337L1499.261-1000.337z"/>
		</g>
		<g>
			<g>
				<g>
					<path fill="#11314C" d="M1213.245-938.914c-1.235,0-2.432-0.675-3.04-1.851l-36.278-70.107
						c-0.867-1.677-0.211-3.742,1.466-4.61c1.678-0.865,3.743-0.21,4.61,1.467l36.279,70.107c0.868,1.678,0.212,3.741-1.467,4.609
						C1214.314-939.038,1213.776-938.914,1213.245-938.914z"/>
				</g>
				<g>
					<path fill="#11314C" d="M1241.143-872.66c-9.313,0-16.89-7.577-16.89-16.89c0-9.314,7.576-16.89,16.89-16.89
						s16.89,7.576,16.89,16.89C1258.032-880.236,1250.456-872.66,1241.143-872.66z M1241.143-901.309
						c-6.484,0-11.759,5.275-11.759,11.759s5.274,11.759,11.759,11.759s11.759-5.275,11.759-11.759
						S1247.627-901.309,1241.143-901.309z"/>
				</g>
				<g>
					<g>
						<path fill="#11314C" d="M1448.849-965.71h-14.537c-1.419,0-2.566-1.149-2.566-2.565v-23.945c0-1.418,1.147-2.566,2.566-2.566
							h14.537c1.419,0,2.566,1.148,2.566,2.566v23.945C1451.415-966.86,1450.268-965.71,1448.849-965.71z M1436.876-970.841h9.408
							v-18.814h-9.408V-970.841z"/>
					</g>
					<g>
						<path fill="#11314C" d="M1448.849-927.441h-14.537c-1.419,0-2.566-1.149-2.566-2.565v-23.945c0-1.418,1.147-2.565,2.566-2.565
							h14.537c1.419,0,2.566,1.147,2.566,2.565v23.945C1451.415-928.59,1450.268-927.441,1448.849-927.441z M1436.876-932.572h9.408
							v-18.814h-9.408V-932.572z"/>
					</g>
					<g>
						<path fill="#11314C" d="M1448.849-889.17h-14.537c-1.419,0-2.566-1.149-2.566-2.566v-23.945c0-1.418,1.147-2.566,2.566-2.566
							h14.537c1.419,0,2.566,1.147,2.566,2.566v23.945C1451.415-890.32,1450.268-889.17,1448.849-889.17z M1436.876-894.302h9.408
							v-18.814h-9.408V-894.302z"/>
					</g>
					<g>
						<path fill="#11314C" d="M1303.894-965.71h-14.538c-1.418,0-2.565-1.149-2.565-2.565v-23.945c0-1.418,1.147-2.566,2.565-2.566
							h14.538c1.419,0,2.566,1.148,2.566,2.566v23.945C1306.46-966.86,1305.313-965.71,1303.894-965.71z M1291.921-970.841h9.408
							v-18.814h-9.408V-970.841z"/>
					</g>
					<g>
						<path fill="#11314C" d="M1303.894-927.441h-14.538c-1.418,0-2.565-1.149-2.565-2.565v-23.945c0-1.418,1.147-2.565,2.565-2.565
							h14.538c1.419,0,2.566,1.147,2.566,2.565v23.945C1306.46-928.59,1305.313-927.441,1303.894-927.441z M1291.921-932.572h9.408
							v-18.814h-9.408V-932.572z"/>
					</g>
					<g>
						<path fill="#11314C" d="M1303.894-889.17h-14.538c-1.418,0-2.565-1.149-2.565-2.566v-23.945c0-1.418,1.147-2.566,2.565-2.566
							h14.538c1.419,0,2.566,1.147,2.566,2.566v23.945C1306.46-890.32,1305.313-889.17,1303.894-889.17z M1291.921-894.302h9.408
							v-18.814h-9.408V-894.302z"/>
					</g>
				</g>
				<g>
					<g>
						<path fill="#11314C" d="M1474.505-847.694h-212.088c-1.418,0-2.565-1.149-2.565-2.565v-26.938
							c0-1.418,1.147-2.566,2.565-2.566h212.088c1.418,0,2.565,1.147,2.565,2.566v26.938
							C1477.07-848.843,1475.923-847.694,1474.505-847.694z M1264.983-852.825h206.956v-21.808h-206.956V-852.825z"/>
					</g>
					<path fill="#11314C" d="M1461.249-1009.325h-38.056v-41.477c0-1.418-1.147-2.565-2.565-2.565h-104.334
						c-1.418,0-2.565,1.147-2.565,2.565v41.477h-38.056c-1.418,0-2.565,1.147-2.565,2.565v129.562c0,1.416,1.147,2.565,2.565,2.565
						h40.621h104.334h40.621c1.418,0,2.566-1.149,2.566-2.565v-129.562C1463.815-1008.178,1462.667-1009.325,1461.249-1009.325z
						 M1278.238-1004.194h35.49v124.43h-35.49V-1004.194z M1318.86-1006.76v-41.477h99.202v41.477v126.996h-99.202V-1006.76z
						 M1458.684-879.764h-35.49v-124.43h35.49V-879.764z"/>
					<path fill="#11314C" d="M1259.852-863.415c-7.141,5.046-15.841,8.024-25.229,8.024c-24.168,0-43.829-19.661-43.829-43.829
						c0-9.803,3.235-18.864,8.694-26.174c2.037-2.728,2.741-3.728,2.726-4.59c-0.017-1.005-1.809-4.209-1.809-4.209l-44.238-81.367
						l5.786-17.355l24.712,4.493l12.271,26.999c0.271,0.592,0.751,1.058,1.35,1.308l8.684,3.618v11.118
						c0,1.165,0.783,2.181,1.909,2.48l12.046,3.188l-3.604,13.331c-0.163,0.608-0.1,1.254,0.183,1.817l8.426,16.854
						c0,0,1.063,2.395,1.557,3.111c0.761,1.104,1.422,1.55,5.139,1.55c0.271,0,0.537,0.015,0.809,0.02
						c16.245,0.296,30.355,9.472,37.677,22.868v-9.269c-8.972-11.405-22.884-18.751-38.485-18.751c-0.395,0-0.785,0.021-1.176,0.03
						l-8.92-17.835l4.022-14.877c0.177-0.66,0.087-1.363-0.256-1.954s-0.905-1.022-1.565-1.196l-12.629-3.344v-10.852
						c0-1.036-0.623-1.971-1.578-2.369l-9.33-3.888l-12.41-27.303c-0.35-0.766-1.051-1.312-1.878-1.462l-28.222-5.131
						c-1.257-0.232-2.488,0.501-2.893,1.712l-6.842,20.524c-0.226,0.675-0.16,1.412,0.181,2.036l45.611,83.894
						c-6.917,8.443-11.076,19.232-11.076,30.974c0,26.995,21.965,48.96,48.96,48.96c9.223,0,17.857-2.567,25.229-7.019V-863.415z"/>
					<g>
						<path fill="#11314C" d="M1600.086-949.697c-0.24-0.643-0.734-2.105-0.838-2.474c-8.056-22.996-26.555-41.116-49.788-48.647
							c-0.141-0.06-0.281-0.109-0.428-0.144c-7.463-2.372-15.404-3.659-23.644-3.659c-0.045,0-0.092,0.003-0.137,0.003
							c1.302,2.494,2.21,5.13,2.702,7.899v-2.706c6.535,0.227,12.856,1.301,18.85,3.14c1.7,2.605,7.648,12.285,12.551,26.992
							c-1.236-0.311-2.479-0.619-3.765-0.905c-7.909-1.755-17.236-3.073-27.636-3.222v-12.765c-0.367,2.302-0.95,4.662-1.783,7.084
							c-1.347,3.907-3.192,7.625-5.163,10.992c0.604-0.021,1.216-0.054,1.815-0.065v39.237h-38.305
							c0.172-9.152,1.298-17.625,2.923-25.287c-0.087-0.111-0.174-0.222-0.264-0.337c-1.036-1.32-2.402-3.067-3.905-5.131
							c-0.261,1.059-0.527,2.106-0.77,3.199c-1.753,7.889-3.065,17.189-3.223,27.557h-15.465v5.131h15.48
							c0.225,9.953,1.573,20.792,4.614,32.245c-8.364-2.692-15.169-5.756-20.095-8.283v5.826c5.572,2.746,12.941,5.875,21.849,8.519
							c2.676,8.54,6.325,17.386,11.171,26.438c-7.269-3.095-13.927-7.346-19.765-12.502v6.681
							c13.311,10.491,30.093,16.762,48.318,16.762c8.233,0,16.167-1.286,23.627-3.654c0.076-0.017,0.146-0.05,0.222-0.075
							c23.56-7.557,42.273-25.995,50.232-49.374c0.207-0.303,0.484-1.469,0.66-1.953c2.278-7.331,3.509-15.122,3.509-23.194
							C1603.639-934.493,1602.395-942.328,1600.086-949.697z M1522.823-853.318c-6.454-0.224-12.699-1.279-18.625-3.078
							c-5.467-9.381-9.593-18.577-12.613-27.493c1.238,0.311,2.48,0.62,3.768,0.905c7.866,1.747,17.141,3.05,27.471,3.212V-853.318z
							 M1522.823-885.001c-12.385-0.241-23.558-2.207-33.1-4.827c-3.461-11.968-4.984-23.373-5.2-33.978h38.3V-885.001z
							 M1554.527-993.417c16.526,7.211,29.878,20.354,37.371,36.729c-5.768-3.169-14.827-7.479-26.491-10.954
							C1561.877-979.088,1557.601-987.905,1554.527-993.417z M1527.954-968.184c12.438,0.227,23.656,2.194,33.234,4.822
							c2.796,9.83,4.931,21.465,5.175,34.425h-38.409V-968.184z M1527.954-923.806h38.404c-0.216,10.563-1.726,21.919-5.158,33.837
							c-11.704,3.304-22.858,4.761-33.246,4.966V-923.806z M1546.704-856.431c-5.963,1.822-12.25,2.888-18.75,3.113v-26.466
							c9.717-0.215,20.27-1.481,31.427-4.364C1556.356-875.164,1552.214-865.892,1546.704-856.431z M1554.079-859.125
							c4.893-9.145,8.563-18.083,11.242-26.706c8.729-2.663,17.785-6.344,27.055-11.274
							C1584.913-880.094,1571.169-866.443,1554.079-859.125z M1595.169-904.517c-9.611,5.575-19.026,9.737-28.145,12.754
							c3.003-11.38,4.336-22.148,4.562-32.043h26.856C1598.21-917.113,1597.091-910.641,1595.169-904.517z M1571.601-928.937
							c-0.156-10.368-1.47-19.668-3.222-27.557c-0.388-1.744-0.802-3.438-1.234-5.093c14.659,4.733,24.557,10.609,27.794,12.678
							c2.055,6.325,3.264,13.026,3.504,19.972H1571.601z"/>
						<path fill="#11314C" d="M1463.815-958.744v5.726c6.309-3.193,12.516-5.784,18.595-7.874c-0.964-1.358-1.964-2.834-2.966-4.413
							C1474.326-963.484,1469.111-961.318,1463.815-958.744z"/>
						<path fill="#11314C" d="M1471.385-982.873c-2.709,2.594-5.253,5.358-7.569,8.313v8.852c2.707-4.225,5.859-8.128,9.349-11.702
							c-0.251-0.639-0.491-1.28-0.719-1.928C1472.029-980.535,1471.69-981.708,1471.385-982.873z"/>
						<path fill="#11314C" d="M1463.815-879.764h5.31c-1.914-2.308-3.687-4.737-5.31-7.271V-879.764z"/>
					</g>
				</g>
			</g>
		</g>
		<g>
			<path fill="#11314C" d="M1614.863-847.694h-460.628c-1.418,0-2.565-1.149-2.565-2.565c0-1.418,1.147-2.565,2.565-2.565h460.628
				c1.417,0,2.565,1.147,2.565,2.565C1617.429-848.843,1616.28-847.694,1614.863-847.694z"/>
		</g>
		<g>
			<path fill="#11314C" d="M1615.719-817.847H1153.38c0-1.995-2.565-3.282-2.565-5.131h462.339c1.416,0,2.565,1.149,2.565,2.566
				C1615.719-818.995,1617.135-817.847,1615.719-817.847z"/>
		</g>
		<g>
			<path fill="#11314C" d="M1613.153-1018.519H1441.58c-1.418,0-2.565-1.149-2.565-2.566c0-1.418,1.147-2.565,2.565-2.565h174.139
				c1.416,0,0,1.147,0,2.565C1615.719-1019.667,1614.569-1018.519,1613.153-1018.519z"/>
		</g>
		<g>
			<path fill="#11314C" d="M1294.06-1018.519h-80.925c-1.416,0-2.565-1.149-2.565-2.566c0-1.418,1.149-2.565,2.565-2.565h80.925
				c1.418,0,2.565,1.147,2.565,2.565C1296.625-1019.667,1295.478-1018.519,1294.06-1018.519z"/>
		</g>
		<g>
			<g>
				<path fill="#11314C" d="M1618.284-1021.084v200.672c0,1.416-1.149,2.565-2.565,2.565c-1.418,0-2.565-1.149-2.565-2.565v-200.672
					c0-1.416,1.147-2.565,2.565-2.565C1617.135-1023.65,1618.284-1022.5,1618.284-1021.084z"/>
			</g>
		</g>
		<g>
			<path fill="#11314C" d="M1155.945-982.442v162.029c0,1.416-1.148,2.565-2.565,2.565c-1.418,0-2.565-1.149-2.565-2.565v-162.029
				c0-1.416,1.147-2.565,2.565-2.565C1154.797-985.007,1155.945-983.858,1155.945-982.442z"/>
		</g>
	</g>
</g>
</svg>
