<?xml version="1.0" encoding="utf-8"?>
<!-- Generator: Adobe Illustrator 16.0.0, SVG Export Plug-In . SVG Version: 6.00 Build 0)  -->
<!DOCTYPE svg PUBLIC "-//W3C//DTD SVG 1.1//EN" "http://www.w3.org/Graphics/SVG/1.1/DTD/svg11.dtd">
<svg version="1.1" id="Layer_1" xmlns="http://www.w3.org/2000/svg" xmlns:xlink="http://www.w3.org/1999/xlink" x="0px" y="0px"
	 width="800px" height="200px" viewBox="-131.658 156 800 200" enable-background="new -131.658 156 800 200" xml:space="preserve">
<g id="Layer_1_1_">
</g>
<g id="Layer_2">
	<g>
		<g>
			<g>
				<path fill="#11314C" d="M238.618,222.267c0,0.797-0.042,1.498-0.126,2.104c-0.084,0.608-0.21,1.11-0.376,1.509
					c-0.168,0.397-0.378,0.682-0.628,0.849c-0.252,0.168-0.524,0.251-0.817,0.251c-0.502,0-1.341-0.397-2.513-1.193
					c-1.174-0.795-2.744-1.675-4.711-2.639c-1.97-0.963-4.325-1.843-7.068-2.639c-2.743-0.795-5.999-1.193-9.77-1.193
					c-4.481,0-8.502,0.816-12.062,2.45c-3.56,1.633-6.575,3.895-9.046,6.784c-2.472,2.891-4.366,6.325-5.687,10.303
					c-1.318,3.979-1.979,8.293-1.979,12.941c0,5.193,0.723,9.801,2.167,13.82s3.444,7.413,6,10.178
					c2.554,2.764,5.601,4.858,9.141,6.281c3.539,1.426,7.423,2.137,11.653,2.137c2.513,0,5.057-0.304,7.633-0.912
					c2.576-0.605,4.973-1.517,7.193-2.732v-23.684h-18.847c-0.713,0-1.246-0.354-1.602-1.067c-0.356-0.711-0.534-1.821-0.534-3.329
					c0-0.795,0.042-1.477,0.126-2.042c0.083-0.564,0.221-1.024,0.408-1.382c0.188-0.354,0.408-0.617,0.66-0.785
					c0.251-0.167,0.564-0.252,0.941-0.252h25.82c0.46,0,0.92,0.085,1.382,0.252c0.46,0.168,0.879,0.419,1.256,0.754
					c0.378,0.336,0.669,0.796,0.881,1.382c0.209,0.588,0.313,1.258,0.313,2.012v30.97c0,1.091-0.188,2.033-0.564,2.828
					c-0.378,0.795-1.174,1.498-2.388,2.104c-1.215,0.607-2.786,1.268-4.712,1.979c-1.927,0.713-3.917,1.32-5.968,1.822
					c-2.053,0.502-4.125,0.879-6.219,1.131c-2.096,0.252-4.168,0.377-6.221,0.377c-6.281,0-11.895-0.974-16.836-2.922
					c-4.941-1.947-9.12-4.721-12.532-8.322c-3.414-3.603-6.021-7.916-7.821-12.941c-1.801-5.025-2.701-10.639-2.701-16.836
					c0-6.449,0.974-12.292,2.921-17.526c1.947-5.235,4.69-9.695,8.229-13.383c3.539-3.685,7.79-6.543,12.753-8.574
					c4.963-2.03,10.459-3.046,16.49-3.046c3.1,0,6.01,0.271,8.732,0.815c2.722,0.545,5.141,1.185,7.256,1.916
					c2.115,0.733,3.896,1.529,5.34,2.387c1.445,0.859,2.439,1.563,2.984,2.104c0.543,0.545,0.92,1.174,1.13,1.885
					C238.513,219.901,238.618,220.927,238.618,222.267z"/>
				<path fill="#11314C" d="M297.041,288.229c0,0.754-0.043,1.404-0.125,1.949c-0.084,0.543-0.199,0.994-0.347,1.351
					s-0.336,0.606-0.565,0.754c-0.23,0.147-0.471,0.22-0.723,0.22h-33.734c-0.838,0-1.633-0.304-2.387-0.91
					s-1.132-1.603-1.132-2.984v-58.55c0-1.382,0.378-2.376,1.132-2.983c0.754-0.606,1.549-0.911,2.387-0.911h33.295
					c0.293,0,0.555,0.073,0.785,0.221c0.229,0.146,0.418,0.388,0.565,0.723c0.146,0.336,0.263,0.785,0.347,1.351
					c0.082,0.565,0.125,1.226,0.125,1.979s-0.043,1.394-0.125,1.916c-0.084,0.524-0.199,0.942-0.347,1.257s-0.336,0.556-0.565,0.723
					c-0.23,0.168-0.492,0.251-0.785,0.251H268.71v19.35h22.552c0.293,0,0.555,0.074,0.785,0.221c0.229,0.147,0.43,0.388,0.598,0.722
					c0.166,0.337,0.281,0.775,0.344,1.319c0.064,0.545,0.097,1.216,0.097,2.011c0,0.713-0.031,1.33-0.097,1.854
					c-0.063,0.523-0.178,0.953-0.344,1.287c-0.168,0.336-0.367,0.576-0.598,0.723c-0.23,0.148-0.492,0.221-0.785,0.221H268.71
					v21.801h26.572c0.252,0,0.491,0.072,0.723,0.219c0.229,0.147,0.418,0.389,0.565,0.724c0.146,0.335,0.263,0.765,0.347,1.286
					C296.998,286.838,297.041,287.475,297.041,288.229z"/>
				<path fill="#11314C" d="M362.25,291.307c0,0.295-0.084,0.535-0.251,0.724c-0.168,0.188-0.472,0.347-0.911,0.472
					s-1.047,0.221-1.821,0.282c-0.774,0.063-1.749,0.095-2.922,0.095c-1.13,0-2.041-0.031-2.731-0.095
					c-0.691-0.063-1.257-0.188-1.696-0.377s-0.765-0.429-0.974-0.724c-0.211-0.291-0.378-0.668-0.504-1.129l-5.401-15.203
					c-0.628-1.76-1.319-3.352-2.073-4.774s-1.633-2.628-2.639-3.612c-1.005-0.982-2.188-1.748-3.549-2.293
					c-1.361-0.543-3.133-0.816-5.31-0.816h-6.471v27.201c0,0.295-0.084,0.557-0.251,0.785c-0.168,0.231-0.462,0.42-0.88,0.565
					c-0.419,0.146-0.964,0.263-1.634,0.347c-0.671,0.084-1.528,0.125-2.575,0.125c-1.005,0-1.854-0.041-2.544-0.125
					c-0.691-0.084-1.247-0.199-1.665-0.347c-0.419-0.146-0.713-0.334-0.88-0.565c-0.168-0.229-0.251-0.49-0.251-0.785v-60.999
					c0-1.382,0.377-2.376,1.131-2.983c0.754-0.606,1.549-0.911,2.387-0.911h17.716c4.021,0,7.423,0.398,10.209,1.193
					c2.785,0.796,5.13,1.927,7.036,3.393c1.905,1.468,3.36,3.277,4.366,5.435c1.005,2.158,1.508,4.598,1.508,7.319
					c0,2.178-0.305,4.168-0.911,5.968c-0.606,1.802-1.467,3.424-2.576,4.869c-1.108,1.443-2.461,2.69-4.052,3.736
					c-1.592,1.048-3.414,1.906-5.466,2.576c1.131,0.461,2.168,1.035,3.11,1.729c0.941,0.689,1.8,1.538,2.574,2.543
					c0.774,1.006,1.509,2.18,2.199,3.52c0.69,1.341,1.371,2.849,2.041,4.521l5.592,14.639c0.418,1.09,0.7,1.896,0.849,2.418
					C362.177,290.543,362.25,290.973,362.25,291.307z M347.425,244.694c0-1.466-0.22-2.827-0.66-4.083
					c-0.438-1.257-1.162-2.335-2.167-3.234c-1.005-0.9-2.293-1.612-3.863-2.138c-1.57-0.521-3.696-0.785-6.377-0.785h-9.359v21.234
					h8.921c2.596,0,4.712-0.262,6.345-0.785c1.634-0.522,2.975-1.276,4.021-2.262c1.047-0.983,1.832-2.146,2.355-3.487
					C347.162,247.814,347.425,246.327,347.425,244.694z"/>
				<path fill="#11314C" d="M388.133,291.057c0,0.293-0.084,0.556-0.251,0.785c-0.168,0.23-0.462,0.418-0.88,0.564
					c-0.419,0.146-0.964,0.262-1.633,0.346c-0.671,0.084-1.529,0.127-2.576,0.127c-1.005,0-1.854-0.043-2.544-0.127
					c-0.691-0.084-1.247-0.199-1.665-0.346c-0.419-0.146-0.713-0.334-0.88-0.564c-0.168-0.229-0.251-0.492-0.251-0.785v-63.513
					c0-0.251,0.095-0.491,0.283-0.724c0.188-0.229,0.49-0.418,0.909-0.564c0.418-0.146,0.964-0.262,1.635-0.346
					c0.669-0.084,1.508-0.126,2.513-0.126c1.047,0,1.905,0.042,2.576,0.126c0.669,0.084,1.214,0.199,1.633,0.346
					c0.418,0.146,0.712,0.336,0.88,0.564c0.167,0.231,0.251,0.473,0.251,0.724V291.057z"/>
				<path fill="#11314C" d="M485.004,291.057c0,0.293-0.073,0.556-0.22,0.785c-0.147,0.23-0.419,0.418-0.816,0.564
					c-0.399,0.146-0.933,0.262-1.603,0.346c-0.671,0.084-1.487,0.127-2.45,0.127c-1.047,0-1.906-0.043-2.575-0.127
					c-0.671-0.084-1.193-0.199-1.57-0.346s-0.64-0.334-0.786-0.564c-0.146-0.229-0.22-0.492-0.22-0.785v-55.723h-0.125
					l-23.433,56.036c-0.168,0.502-0.619,0.88-1.352,1.132c-0.732,0.25-1.938,0.377-3.611,0.377c-0.88,0-1.613-0.031-2.199-0.096
					c-0.587-0.063-1.067-0.156-1.444-0.281c-0.377-0.127-0.66-0.283-0.849-0.473c-0.189-0.189-0.346-0.408-0.471-0.659
					l-22.555-56.036h-0.125v55.723c0,0.293-0.073,0.556-0.22,0.785c-0.146,0.23-0.409,0.418-0.786,0.564s-0.899,0.262-1.57,0.346
					c-0.67,0.084-1.528,0.127-2.574,0.127c-1.048,0-1.896-0.043-2.545-0.127c-0.649-0.084-1.162-0.199-1.539-0.346
					s-0.64-0.334-0.785-0.564c-0.147-0.229-0.22-0.492-0.22-0.785v-60.748c0-1.424,0.396-2.471,1.192-3.142
					c0.795-0.67,1.696-1.006,2.701-1.006h6.785c1.298,0,2.408,0.126,3.33,0.377c0.92,0.252,1.728,0.649,2.418,1.193
					c0.69,0.545,1.288,1.236,1.791,2.073c0.502,0.838,0.941,1.822,1.318,2.952l18.657,44.979h0.252l19.224-44.729
					c0.503-1.257,1.016-2.324,1.54-3.204c0.521-0.88,1.13-1.591,1.82-2.136c0.691-0.544,1.466-0.933,2.324-1.162
					c0.858-0.23,1.874-0.347,3.047-0.347h6.408c1.046,0,1.947,0.336,2.701,1.006c0.754,0.671,1.131,1.718,1.131,3.142v60.75H485.004
					z"/>
				<path fill="#11314C" d="M563.72,258.451c0,5.445-0.682,10.334-2.042,14.669c-1.361,4.335-3.372,8.021-6.031,11.058
					c-2.66,3.037-5.958,5.371-9.894,7.004c-3.938,1.633-8.461,2.451-13.57,2.451c-5.108,0-9.58-0.713-13.412-2.138
					c-3.832-1.423-7.036-3.549-9.61-6.376c-2.576-2.826-4.492-6.354-5.749-10.585c-1.257-4.229-1.885-9.149-1.885-14.765
					c0-5.276,0.69-10.061,2.072-14.353c1.383-4.293,3.413-7.947,6.094-10.964c2.681-3.015,5.989-5.34,9.927-6.973
					c3.937-1.634,8.46-2.45,13.569-2.45c4.899,0,9.244,0.713,13.035,2.137c3.79,1.425,6.983,3.539,9.58,6.345
					c2.597,2.807,4.564,6.282,5.905,10.429C563.049,248.087,563.72,252.924,563.72,258.451z M552.537,259.143
					c0-3.686-0.347-7.066-1.036-10.146c-0.691-3.078-1.813-5.749-3.361-8.01c-1.55-2.262-3.581-4.021-6.094-5.276
					c-2.513-1.257-5.612-1.886-9.298-1.886c-3.687,0-6.795,0.671-9.329,2.012s-4.586,3.172-6.156,5.495
					c-1.57,2.325-2.723,5.026-3.455,8.104s-1.1,6.313-1.1,9.706c0,3.812,0.335,7.287,1.006,10.429
					c0.669,3.142,1.79,5.853,3.36,8.135c1.569,2.283,3.611,4.042,6.125,5.276c2.513,1.236,5.611,1.855,9.298,1.855
					c3.685,0,6.806-0.691,9.359-2.074c2.556-1.383,4.627-3.244,6.221-5.592c1.591-2.345,2.731-5.076,3.424-8.197
					C552.191,265.855,552.537,262.577,552.537,259.143z"/>
				<path fill="#11314C" d="M617.998,273.969c0,3.101-0.619,5.863-1.854,8.293s-2.921,4.471-5.058,6.125
					c-2.136,1.654-4.69,2.942-7.664,3.863c-2.974,0.92-6.198,1.383-9.674,1.383c-2.138,0-4.199-0.188-6.188-0.566
					c-1.989-0.377-3.78-0.848-5.371-1.413c-1.592-0.565-2.942-1.142-4.052-1.728s-1.833-1.047-2.168-1.383
					c-0.335-0.334-0.576-0.617-0.722-0.848c-0.147-0.23-0.273-0.514-0.377-0.85c-0.105-0.334-0.18-0.723-0.222-1.162
					c-0.042-0.438-0.063-0.994-0.063-1.664c0-0.838,0.021-1.561,0.063-2.168c0.042-0.605,0.137-1.119,0.283-1.539
					c0.146-0.418,0.335-0.723,0.565-0.91c0.229-0.188,0.513-0.282,0.848-0.282c0.461,0,1.162,0.304,2.104,0.91
					c0.941,0.608,2.146,1.278,3.611,2.011c1.467,0.732,3.214,1.403,5.246,2.01c2.03,0.608,4.303,0.912,6.816,0.912
					c1.884,0,3.622-0.23,5.214-0.691c1.591-0.461,2.962-1.119,4.114-1.979c1.15-0.857,2.052-1.904,2.701-3.141
					c0.648-1.234,0.975-2.648,0.975-4.24c0-1.717-0.451-3.214-1.352-4.492c-0.9-1.277-2.084-2.408-3.55-3.393
					c-1.467-0.982-3.141-1.863-5.024-2.639c-1.886-0.774-3.802-1.603-5.748-2.481c-1.948-0.879-3.864-1.853-5.749-2.921
					c-1.886-1.068-3.57-2.324-5.058-3.77c-1.486-1.444-2.67-3.183-3.55-5.214c-0.879-2.031-1.319-4.407-1.319-7.132
					c0-2.68,0.545-5.118,1.635-7.317c1.089-2.198,2.596-4.072,4.522-5.622s4.188-2.754,6.784-3.612
					c2.596-0.857,5.403-1.288,8.418-1.288c1.76,0,3.497,0.168,5.215,0.503c1.717,0.335,3.276,0.732,4.681,1.193
					c1.403,0.461,2.616,0.953,3.644,1.477c1.027,0.524,1.686,0.941,1.979,1.257c0.292,0.313,0.512,0.587,0.658,0.815
					c0.146,0.231,0.272,0.524,0.377,0.88c0.104,0.356,0.179,0.785,0.221,1.288c0.042,0.502,0.063,1.09,0.063,1.759
					c0,0.797-0.021,1.468-0.063,2.012s-0.137,0.995-0.282,1.351c-0.147,0.356-0.314,0.618-0.503,0.785
					c-0.188,0.168-0.43,0.251-0.724,0.251c-0.377,0-0.994-0.271-1.853-0.816c-0.859-0.544-1.927-1.119-3.204-1.728
					c-1.278-0.606-2.775-1.183-4.492-1.729c-1.718-0.544-3.644-0.816-5.778-0.816c-1.635,0-3.12,0.221-4.46,0.66
					c-1.342,0.438-2.473,1.047-3.394,1.82c-0.922,0.775-1.634,1.696-2.136,2.766c-0.503,1.067-0.754,2.209-0.754,3.424
					c0,1.801,0.46,3.351,1.382,4.648c0.921,1.299,2.125,2.43,3.612,3.393c1.485,0.964,3.172,1.854,5.057,2.67
					c1.885,0.816,3.811,1.646,5.78,2.481c1.968,0.838,3.895,1.779,5.778,2.826c1.885,1.047,3.57,2.283,5.059,3.706
					c1.484,1.425,2.689,3.121,3.611,5.089C617.536,268.965,617.998,271.289,617.998,273.969z"/>
			</g>
			<rect x="-101.314" y="291.9" fill="#55A2F0" width="738.313" height="45.449"/>
			<g>
				<path fill="#55A2F0" d="M18.436,200.15H5.186c-0.829,0-1.5-0.672-1.5-1.5V185.4c0-0.829,0.671-1.5,1.5-1.5h13.25
					c0.829,0,1.5,0.671,1.5,1.5v13.25C19.936,199.479,19.264,200.15,18.436,200.15z M6.686,197.15h10.25V186.9H6.686V197.15z"/>
			</g>
			<g>
				<path fill="#55A2F0" d="M45.936,200.15h-13.25c-0.828,0-1.5-0.672-1.5-1.5V185.4c0-0.829,0.672-1.5,1.5-1.5h13.25
					c0.829,0,1.5,0.671,1.5,1.5v13.25C47.436,199.479,46.764,200.15,45.936,200.15z M34.186,197.15h10.25V186.9h-10.25V197.15z"/>
			</g>
			<g>
				<path fill="#55A2F0" d="M18.436,222.15H5.186c-0.829,0-1.5-0.672-1.5-1.5V207.4c0-0.829,0.671-1.5,1.5-1.5h13.25
					c0.829,0,1.5,0.671,1.5,1.5v13.25C19.936,221.479,19.264,222.15,18.436,222.15z M6.686,219.15h10.25V208.9H6.686V219.15z"/>
			</g>
			<g>
				<path fill="#55A2F0" d="M45.936,222.15h-13.25c-0.828,0-1.5-0.672-1.5-1.5V207.4c0-0.829,0.672-1.5,1.5-1.5h13.25
					c0.829,0,1.5,0.671,1.5,1.5v13.25C47.436,221.479,46.764,222.15,45.936,222.15z M34.186,219.15h10.25V208.9h-10.25V219.15z"/>
			</g>
			<g>
				<path fill="#55A2F0" d="M18.436,244.15H5.186c-0.829,0-1.5-0.672-1.5-1.5V229.4c0-0.829,0.671-1.5,1.5-1.5h13.25
					c0.829,0,1.5,0.671,1.5,1.5v13.25C19.936,243.479,19.264,244.15,18.436,244.15z M6.686,241.15h10.25V230.9H6.686V241.15z"/>
			</g>
			<g>
				<path fill="#55A2F0" d="M45.936,244.15h-13.25c-0.828,0-1.5-0.672-1.5-1.5V229.4c0-0.829,0.672-1.5,1.5-1.5h13.25
					c0.829,0,1.5,0.671,1.5,1.5v13.25C47.436,243.479,46.764,244.15,45.936,244.15z M34.186,241.15h10.25V230.9h-10.25V241.15z"/>
			</g>
			<g>
				<path fill="#55A2F0" d="M18.436,266.15H5.186c-0.829,0-1.5-0.672-1.5-1.5V251.4c0-0.829,0.671-1.5,1.5-1.5h13.25
					c0.829,0,1.5,0.671,1.5,1.5v13.25C19.936,265.479,19.264,266.15,18.436,266.15z M6.686,263.15h10.25V252.9H6.686V263.15z"/>
			</g>
			<g>
				<path fill="#55A2F0" d="M45.936,266.15h-13.25c-0.828,0-1.5-0.672-1.5-1.5V251.4c0-0.829,0.672-1.5,1.5-1.5h13.25
					c0.829,0,1.5,0.671,1.5,1.5v13.25C47.436,265.479,46.764,266.15,45.936,266.15z M34.186,263.15h10.25V252.9h-10.25V263.15z"/>
			</g>
			<g>
				<path fill="#55A2F0" d="M107.592,227.886c1.657-2.078,5.106-6.401,6.82-11.377c2.271-6.596,0.808-12.286-4.232-16.461
					c-1.728-1.432-4.803-2.958-8.25-2.958c-3.193,0-6.554,1.519-8.324,2.93c-5.049,4.025-6.483,9.688-4.152,16.379
					c1.747,5.014,5.188,9.403,6.844,11.512c0.302,0.387,0.588,0.749,0.692,0.903c1.104,1.631,2.052,3.373,2.51,4.247h-2.236
					c-0.658,0-1.191,0.533-1.191,1.191s0.533,1.191,1.191,1.191h9.139c0.658,0,1.192-0.533,1.192-1.191s-0.534-1.191-1.192-1.191
					h-2.04c0.457-0.875,1.405-2.616,2.511-4.247C106.974,228.658,107.288,228.267,107.592,227.886z M101.929,232.576
					c0,0-1.305-2.645-2.967-5.101c-1.478-2.181-14.96-16.752-3.872-25.593c1.426-1.137,4.273-2.41,6.839-2.41
					c2.782,0,5.326,1.248,6.73,2.41c11.196,9.272-2.286,23.412-3.764,25.593C103.233,229.933,101.929,232.576,101.929,232.576z"/>
				<path fill="#55A2F0" d="M101.909,206.538c2.513,0,4.557,2.046,4.557,4.559c0,2.512-2.044,4.557-4.557,4.557
					c-2.514,0-4.558-2.045-4.558-4.557C97.352,208.584,99.396,206.538,101.909,206.538 M101.909,204.155
					c-3.833,0-6.941,3.107-6.941,6.941c0,3.833,3.107,6.94,6.941,6.94s6.94-3.107,6.94-6.94
					C108.85,207.263,105.742,204.155,101.909,204.155L101.909,204.155z"/>
			</g>
			<g>
				<g>
					<g>
						<path fill="#11314C" d="M-65.313,240.067c-0.724,0-1.422-0.395-1.778-1.082l-21.21-40.989
							c-0.507-0.979-0.124-2.188,0.857-2.694c0.98-0.506,2.188-0.123,2.695,0.856l21.21,40.989c0.507,0.981,0.124,2.188-0.857,2.695
							C-64.689,239.994-65.003,240.067-65.313,240.067z"/>
					</g>
					<g>
						<path fill="#11314C" d="M-49.002,278.803c-5.445,0-9.875-4.43-9.875-9.875s4.43-9.875,9.875-9.875
							c5.445,0,9.875,4.43,9.875,9.875S-43.557,278.803-49.002,278.803z M-49.002,262.053c-3.791,0-6.875,3.084-6.875,6.875
							s3.084,6.875,6.875,6.875c3.791,0,6.875-3.084,6.875-6.875S-45.211,262.053-49.002,262.053z"/>
					</g>
					<g>
						<g>
							<path fill="#11314C" d="M72.436,224.4h-8.5c-0.829,0-1.5-0.672-1.5-1.5v-14c0-0.829,0.671-1.5,1.5-1.5h8.5
								c0.829,0,1.5,0.671,1.5,1.5v14C73.936,223.729,73.264,224.4,72.436,224.4z M65.436,221.4h5.5v-11h-5.5V221.4z"/>
						</g>
						<g>
							<path fill="#11314C" d="M72.436,246.775h-8.5c-0.829,0-1.5-0.672-1.5-1.5v-14c0-0.829,0.671-1.5,1.5-1.5h8.5
								c0.829,0,1.5,0.671,1.5,1.5v14C73.936,246.104,73.264,246.775,72.436,246.775z M65.436,243.775h5.5v-11h-5.5V243.775z"/>
						</g>
						<g>
							<path fill="#11314C" d="M72.436,269.15h-8.5c-0.829,0-1.5-0.672-1.5-1.5v-14c0-0.829,0.671-1.5,1.5-1.5h8.5
								c0.829,0,1.5,0.671,1.5,1.5v14C73.936,268.479,73.264,269.15,72.436,269.15z M65.436,266.15h5.5v-11h-5.5V266.15z"/>
						</g>
						<g>
							<path fill="#11314C" d="M-12.314,224.4h-8.5c-0.829,0-1.5-0.672-1.5-1.5v-14c0-0.829,0.671-1.5,1.5-1.5h8.5
								c0.829,0,1.5,0.671,1.5,1.5v14C-10.814,223.729-11.486,224.4-12.314,224.4z M-19.314,221.4h5.5v-11h-5.5V221.4z"/>
						</g>
						<g>
							<path fill="#11314C" d="M-12.314,246.775h-8.5c-0.829,0-1.5-0.672-1.5-1.5v-14c0-0.829,0.671-1.5,1.5-1.5h8.5
								c0.829,0,1.5,0.671,1.5,1.5v14C-10.814,246.104-11.486,246.775-12.314,246.775z M-19.314,243.775h5.5v-11h-5.5V243.775z"/>
						</g>
						<g>
							<path fill="#11314C" d="M-12.314,269.15h-8.5c-0.829,0-1.5-0.672-1.5-1.5v-14c0-0.829,0.671-1.5,1.5-1.5h8.5
								c0.829,0,1.5,0.671,1.5,1.5v14C-10.814,268.479-11.486,269.15-12.314,269.15z M-19.314,266.15h5.5v-11h-5.5V266.15z"/>
						</g>
					</g>
					<g>
						<g>
							<path fill="#11314C" d="M87.436,293.4h-124c-0.829,0-1.5-0.672-1.5-1.5v-15.75c0-0.829,0.671-1.5,1.5-1.5h124
								c0.829,0,1.5,0.671,1.5,1.5v15.75C88.936,292.729,88.264,293.4,87.436,293.4z M-35.064,290.4h121v-12.75h-121V290.4z"/>
						</g>
						<path fill="#11314C" d="M79.686,198.9h-22.25v-24.25c0-0.829-0.671-1.5-1.5-1.5h-61c-0.829,0-1.5,0.671-1.5,1.5v24.25h-22.25
							c-0.829,0-1.5,0.671-1.5,1.5v75.75c0,0.828,0.671,1.5,1.5,1.5h23.75h61h23.75c0.829,0,1.5-0.672,1.5-1.5V200.4
							C81.186,199.571,80.514,198.9,79.686,198.9z M-27.314,201.9h20.75v72.75h-20.75V201.9z M-3.564,200.4v-24.25h58v24.25v74.25
							h-58V200.4z M78.186,274.65h-20.75V201.9h20.75V274.65z"/>
						<path fill="#11314C" d="M-38.064,284.209c-4.175,2.949-9.262,4.689-14.751,4.689c-14.13,0-25.625-11.494-25.625-25.625
							c0-5.73,1.892-11.028,5.083-15.302c1.191-1.595,1.602-2.18,1.594-2.685c-0.01-0.588-1.057-2.461-1.057-2.461l-25.865-47.571
							l3.383-10.147l14.448,2.627l7.175,15.785c0.157,0.346,0.439,0.618,0.789,0.765l5.077,2.115v6.5
							c0,0.681,0.458,1.275,1.116,1.45l7.042,1.864l-2.107,7.794c-0.096,0.354-0.058,0.732,0.106,1.063l4.927,9.854
							c0,0,0.621,1.399,0.91,1.818c0.445,0.646,0.832,0.906,3.004,0.906c0.158,0,0.315,0.009,0.473,0.012
							c9.498,0.174,17.748,5.538,22.028,13.37v-5.419c-5.246-6.668-13.379-10.963-22.501-10.963c-0.23,0-0.458,0.012-0.688,0.019
							l-5.214-10.429l2.351-8.697c0.104-0.387,0.05-0.798-0.149-1.144c-0.199-0.346-0.529-0.598-0.915-0.699l-7.384-1.955v-6.345
							c0-0.604-0.364-1.152-0.923-1.385l-5.456-2.273l-7.256-15.963c-0.204-0.447-0.614-0.767-1.097-0.854l-16.5-3
							c-0.735-0.137-1.456,0.293-1.691,1.001l-4,12c-0.132,0.395-0.094,0.825,0.105,1.189l26.667,49.05
							c-4.044,4.938-6.476,11.244-6.476,18.108c0,15.783,12.841,28.625,28.625,28.625c5.393,0,10.44-1.5,14.751-4.104
							L-38.064,284.209L-38.064,284.209z"/>
						<g>
							<path fill="#11314C" d="M160.858,233.763c0.113-0.524-0.066-1.081-0.489-1.446c-4.71-13.445-15.525-24.039-29.11-28.441
								c-0.081-0.035-0.164-0.063-0.25-0.085c-4.363-1.387-9.006-2.14-13.823-2.14c-0.026,0-0.053,0.002-0.08,0.002
								c0.761,1.458,1.292,2.999,1.58,4.618v-1.582c3.82,0.133,7.518,0.761,11.021,1.836c0.994,1.523,4.471,7.184,7.338,15.781
								c-0.725-0.183-1.449-0.362-2.201-0.529c-4.625-1.025-10.078-1.797-16.158-1.884v-7.463c-0.215,1.346-0.555,2.726-1.043,4.142
								c-0.787,2.284-1.866,4.458-3.019,6.427c0.354-0.013,0.711-0.03,1.062-0.037V245.9H93.29
								c0.101-5.351,0.759-10.305,1.709-14.784c-0.051-0.064-0.103-0.13-0.154-0.196c-0.605-0.771-1.405-1.793-2.284-3
								c-0.151,0.618-0.308,1.23-0.449,1.869c-1.024,4.612-1.793,10.051-1.884,16.111h-9.042v3h9.052
								c0.132,5.819,0.92,12.156,2.697,18.854c-4.89-1.574-8.868-3.365-11.749-4.844v3.406c3.258,1.605,7.566,3.436,12.775,4.98
								c1.563,4.992,3.698,10.164,6.531,15.457c-4.25-1.811-8.144-4.295-11.557-7.311v3.906c7.782,6.134,17.595,9.799,28.25,9.799
								c4.813,0,9.452-0.752,13.813-2.137c0.045-0.01,0.086-0.028,0.13-0.043c13.773-4.418,24.716-15.199,29.369-28.867
								c0.284-0.313,0.423-0.727,0.385-1.143c1.333-4.285,2.052-8.841,2.052-13.561
								C162.936,242.652,162.208,238.071,160.858,233.763z M115.686,290.112c-3.772-0.132-7.424-0.748-10.89-1.8
								c-3.196-5.484-5.608-10.861-7.374-16.074c0.724,0.182,1.45,0.361,2.203,0.529c4.599,1.021,10.021,1.783,16.061,1.877V290.112
								z M115.686,271.588c-7.241-0.142-13.772-1.291-19.353-2.822c-2.023-6.998-2.914-13.665-3.04-19.865h22.393V271.588z
								 M134.221,208.2c9.662,4.217,17.469,11.9,21.852,21.475c-3.373-1.854-8.67-4.373-15.488-6.404
								C138.518,216.578,136.019,211.424,134.221,208.2z M118.686,222.953c7.271,0.134,13.831,1.283,19.431,2.819
								c1.635,5.747,2.883,12.55,3.025,20.127h-22.456V222.953z M118.686,248.9h22.453c-0.126,6.176-1.009,12.814-3.016,19.783
								c-6.842,1.932-13.364,2.783-19.438,2.902L118.686,248.9L118.686,248.9z M129.647,288.291
								c-3.486,1.064-7.163,1.688-10.962,1.82v-15.475c5.682-0.125,11.852-0.865,18.374-2.551
								C135.291,277.34,132.869,282.76,129.647,288.291z M133.96,286.717c2.859-5.348,5.006-10.572,6.573-15.615
								c5.104-1.557,10.396-3.709,15.817-6.592C151.988,274.456,143.951,282.438,133.96,286.717z M157.983,260.178
								c-5.618,3.26-11.124,5.692-16.454,7.457c1.756-6.654,2.535-12.949,2.666-18.734h15.702
								C159.762,252.813,159.107,256.598,157.983,260.178z M144.204,245.9c-0.091-6.062-0.859-11.499-1.884-16.111
								c-0.227-1.02-0.469-2.01-0.721-2.978c8.569,2.768,14.356,6.203,16.249,7.412c1.202,3.698,1.908,7.616,2.049,11.677H144.204z"
								/>
							<path fill="#11314C" d="M81.186,228.474v3.348c3.688-1.867,7.317-3.382,10.872-4.604c-0.563-0.794-1.147-1.657-1.733-2.58
								C87.331,225.701,84.282,226.969,81.186,228.474z"/>
							<path fill="#11314C" d="M85.611,214.366c-1.584,1.518-3.07,3.134-4.426,4.86v5.175c1.583-2.47,3.426-4.752,5.465-6.842
								c-0.146-0.373-0.286-0.748-0.419-1.127C85.988,215.733,85.79,215.047,85.611,214.366z"/>
							<path fill="#11314C" d="M81.186,274.65h3.104c-1.119-1.35-2.155-2.77-3.104-4.252V274.65z"/>
						</g>
					</g>
				</g>
			</g>
			<g>
				<path fill="#11314C" d="M635.498,293.4H-99.814c-0.829,0-1.5-0.672-1.5-1.5c0-0.829,0.671-1.5,1.5-1.5h735.313
					c0.828,0,1.5,0.671,1.5,1.5C636.998,292.729,636.326,293.4,635.498,293.4z"/>
			</g>
			<g>
				<path fill="#11314C" d="M636.998,338.85h-737.313c0-1.166-1.5-1.918-1.5-3h737.313c0.828,0,1.5,0.672,1.5,1.5
					C636.998,338.18,637.826,338.85,636.998,338.85z"/>
			</g>
			<g>
				<path fill="#11314C" d="M635.498,193.525H68.186c-0.829,0-1.5-0.672-1.5-1.5c0-0.829,0.671-1.5,1.5-1.5h568.813
					c0.828,0,0,0.671,0,1.5C636.998,192.854,636.326,193.525,635.498,193.525z"/>
			</g>
			<g>
				<path fill="#11314C" d="M-18.064,193.525h-47.313c-0.829,0-1.5-0.672-1.5-1.5c0-0.829,0.671-1.5,1.5-1.5h47.313
					c0.829,0,1.5,0.671,1.5,1.5C-16.564,192.854-17.236,193.525-18.064,193.525z"/>
			</g>
			<g>
				<g>
					<path fill="#11314C" d="M638.498,192.025V337.35c0,0.828-0.672,1.5-1.5,1.5c-0.829,0-1.5-0.672-1.5-1.5V192.025
						c0-0.828,0.671-1.5,1.5-1.5C637.826,190.525,638.498,191.197,638.498,192.025z"/>
				</g>
			</g>
			<g>
				<path fill="#11314C" d="M-73.799,313.604c0-7.797,5.708-12.252,13.4-12.252c3.028,0,5.36,0.593,6.509,1.113l-1.114,4.281
					c-1.288-0.557-2.889-1.009-5.43-1.009c-4.455,0-7.831,2.472-7.831,7.587c0,4.838,3.098,7.691,7.413,7.691
					c1.184,0,2.158-0.139,2.576-0.348v-4.908h-3.585v-4.142h8.736v12.354c-1.636,0.592-4.733,1.324-7.831,1.324
					c-4.281,0-7.379-1.08-9.537-3.134C-72.65,320.112-73.833,317.049-73.799,313.604z"/>
				<path fill="#11314C" d="M-41.289,307.652c5.499,0,7.622,4.281,7.622,8.492c0,0.939-0.139,1.705-0.208,2.088h-10.964
					c0.174,2.193,2.332,3.236,4.803,3.236c1.81,0,3.237-0.242,4.699-0.729l0.696,3.618c-1.74,0.697-3.898,1.08-6.16,1.08
					c-5.778,0-9.084-3.377-9.084-8.701C-49.886,312.42-47.206,307.652-41.289,307.652z M-38.609,314.613
					c0-1.253-0.591-3.445-2.993-3.445c-2.228,0-3.132,2.053-3.271,3.445H-38.609z"/>
				<path fill="#11314C" d="M-30.568,313.639c0-2.506-0.035-4.143-0.139-5.604h4.56l0.208,3.134h0.139
					c0.87-2.507,2.924-3.517,4.595-3.517c0.487,0,0.73,0,1.148,0.069v4.978c-0.418-0.069-0.87-0.14-1.462-0.14
					c-1.914,0-3.271,1.043-3.62,2.681c-0.07,0.349-0.104,0.8-0.104,1.183v8.633h-5.325V313.639L-30.568,313.639z"/>
				<path fill="#11314C" d="M-9.996,307.652c5.499,0,7.622,4.281,7.622,8.492c0,0.939-0.139,1.705-0.208,2.088h-10.964
					c0.174,2.193,2.332,3.236,4.803,3.236c1.81,0,3.237-0.242,4.699-0.729l0.696,3.618c-1.74,0.697-3.898,1.08-6.16,1.08
					c-5.778,0-9.084-3.377-9.084-8.701C-18.594,312.42-15.913,307.652-9.996,307.652z M-7.317,314.613
					c0-1.253-0.591-3.445-2.993-3.445c-2.228,0-3.132,2.053-3.271,3.445H-7.317z"/>
				<path fill="#11314C" d="M0.725,313.465c0-2.123-0.07-3.898-0.139-5.431h4.629l0.244,2.367h0.104
					c0.696-1.114,2.401-2.75,5.255-2.75c3.481,0,6.09,2.297,6.09,7.31v10.094h-5.291v-9.433c0-2.192-0.801-3.688-2.68-3.688
					c-1.462,0-2.332,1.008-2.68,1.982c-0.14,0.313-0.209,0.836-0.209,1.323v9.815H0.724L0.725,313.465L0.725,313.465z"/>
				<path fill="#11314C" d="M29.893,307.652c1.428,0,2.958,0.242,4.072,0.66l-0.835,3.969c-0.626-0.313-1.565-0.557-2.958-0.557
					c-2.784,0-4.594,1.982-4.561,4.769c0,3.132,2.088,4.804,4.629,4.804c1.289,0,2.229-0.244,3.063-0.558l0.626,3.897
					c-0.975,0.418-2.715,0.801-4.732,0.801c-5.5,0-9.016-3.377-9.016-8.735C20.182,311.725,23.593,307.652,29.893,307.652z"/>
				<path fill="#11314C" d="M36.716,303.301c0-1.531,1.114-2.68,2.785-2.68c1.704,0,2.784,1.148,2.784,2.68
					c0.035,1.463-1.08,2.646-2.854,2.646C37.759,305.947,36.716,304.764,36.716,303.301z M36.82,308.034h5.324v17.021H36.82V308.034
					z"/>
				<path fill="#11314C" d="M55.268,313.707v-0.242c0-0.906-0.486-2.193-3.132-2.193c-1.739,0-3.517,0.627-4.664,1.287l-0.976-3.375
					c1.185-0.696,3.516-1.531,6.613-1.531c5.674,0,7.449,3.341,7.449,7.344v5.917c0,1.636,0.104,3.167,0.278,4.142h-4.77
					l-0.313-1.67H55.65c-1.113,1.322-2.854,2.053-4.873,2.053c-3.445,0-5.5-2.471-5.5-5.186
					C45.279,315.797,49.246,313.707,55.268,313.707z M52.623,321.713c1.287,0,2.367-0.869,2.714-1.949
					c0.104-0.244,0.104-0.592,0.104-0.869v-1.914c-2.819,0.033-4.941,0.695-4.941,2.715
					C50.499,321.053,51.404,321.713,52.623,321.713z"/>
				<path fill="#11314C" d="M64.735,313.465c0-2.123-0.069-3.898-0.139-5.431h4.524l0.209,2.297h0.104
					c0.696-1.079,2.229-2.68,5.151-2.68c2.228,0,3.933,1.112,4.664,2.89h0.069c0.627-0.871,1.393-1.566,2.192-2.055
					c0.94-0.557,1.984-0.835,3.237-0.835c3.236,0,5.743,2.297,5.743,7.379v10.024H85.34v-9.225c0-2.471-0.8-3.896-2.506-3.896
					c-1.218,0-2.088,0.799-2.438,1.81c-0.139,0.418-0.174,0.938-0.174,1.356v9.955h-5.186v-9.537c0-2.123-0.767-3.584-2.438-3.584
					c-1.356,0-2.191,1.043-2.471,1.879c-0.174,0.418-0.208,0.904-0.208,1.322v9.92h-5.187L64.735,313.465L64.735,313.465z"/>
				<path fill="#11314C" d="M102.328,307.652c5.499,0,7.622,4.281,7.622,8.492c0,0.939-0.14,1.705-0.208,2.088H98.777
					c0.175,2.193,2.332,3.236,4.804,3.236c1.81,0,3.236-0.242,4.699-0.729l0.695,3.618c-1.739,0.697-3.897,1.08-6.16,1.08
					c-5.777,0-9.084-3.377-9.084-8.701C93.73,312.42,96.411,307.652,102.328,307.652z M105.008,314.613
					c0-1.253-0.591-3.445-2.993-3.445c-2.228,0-3.132,2.053-3.271,3.445H105.008z"/>
				<path fill="#11314C" d="M113.049,313.465c0-2.123-0.07-3.898-0.139-5.431h4.629l0.244,2.367h0.104
					c0.696-1.114,2.401-2.75,5.255-2.75c3.481,0,6.091,2.297,6.091,7.31v10.094h-5.291v-9.433c0-2.192-0.801-3.688-2.68-3.688
					c-1.462,0-2.332,1.008-2.68,1.982c-0.141,0.313-0.209,0.836-0.209,1.323v9.815h-5.325L113.049,313.465L113.049,313.465z"/>
				<path fill="#11314C" d="M134.004,318.895v-6.961h-2.297v-3.898h2.297v-3.654l5.186-1.219v4.873h3.794v3.898h-3.794v6.16
					c0,2.053,0.487,2.992,2.055,2.992c0.695,0,1.218-0.068,1.601-0.174l0.035,4.037c-0.696,0.244-1.949,0.486-3.411,0.486
					c-1.74,0-3.167-0.592-4.037-1.496C134.457,322.932,134.004,321.33,134.004,318.895z"/>
				<path fill="#11314C" d="M153.982,307.652c5.116,0,8.701,3.41,8.701,8.875c0,6.369-4.873,8.91-9.119,8.91
					c-4.873,0-8.667-3.271-8.667-8.875C144.898,310.819,148.971,307.652,153.982,307.652z M153.809,321.643
					c2.297,0,3.411-2.262,3.411-5.045c0-2.402-0.835-5.188-3.411-5.188c-2.609,0-3.445,2.784-3.445,5.15
					C150.363,319.277,151.477,321.643,153.809,321.643z"/>
				<path fill="#11314C" d="M180.959,307.652c2.123,0,3.759,0.73,4.523,1.914h0.07v-9.225h5.29v19.631
					c0,1.949,0.07,3.969,0.14,5.082h-4.733l-0.208-2.471h-0.07c-1.079,1.913-3.167,2.854-5.325,2.854
					c-4.038,0-7.273-3.445-7.273-8.735C173.337,310.992,176.922,307.652,180.959,307.652z M182.351,321.227
					c1.531,0,2.75-1.045,3.063-2.541c0.104-0.383,0.139-0.766,0.139-1.219v-2.193c0-0.313-0.035-0.66-0.104-1.008
					c-0.278-1.394-1.428-2.541-3.063-2.541c-2.401,0-3.62,2.158-3.62,4.803C178.766,319.415,180.158,321.227,182.351,321.227z"/>
				<path fill="#11314C" d="M202.714,307.652c5.499,0,7.622,4.281,7.622,8.492c0,0.939-0.139,1.705-0.208,2.088h-10.964
					c0.174,2.193,2.332,3.236,4.803,3.236c1.81,0,3.237-0.242,4.699-0.729l0.696,3.618c-1.74,0.697-3.898,1.08-6.16,1.08
					c-5.778,0-9.084-3.377-9.084-8.701C194.117,312.42,196.797,307.652,202.714,307.652z M205.394,314.613
					c0-1.253-0.591-3.445-2.993-3.445c-2.228,0-3.132,2.053-3.271,3.445H205.394z"/>
				<path fill="#11314C" d="M222.067,301.596h5.325v23.459h-5.325V301.596z"/>
				<path fill="#11314C" d="M231.883,313.465c0-2.123-0.07-3.898-0.139-5.431h4.523l0.209,2.297h0.104
					c0.695-1.079,2.228-2.68,5.15-2.68c2.229,0,3.934,1.112,4.664,2.89h0.07c0.626-0.871,1.392-1.566,2.192-2.055
					c0.939-0.557,1.983-0.835,3.236-0.835c3.236,0,5.743,2.297,5.743,7.379v10.024h-5.152v-9.225c0-2.471-0.8-3.896-2.506-3.896
					c-1.218,0-2.088,0.799-2.437,1.81c-0.14,0.418-0.174,0.938-0.174,1.356v9.955h-5.187v-9.537c0-2.123-0.766-3.584-2.437-3.584
					c-1.357,0-2.192,1.043-2.472,1.879c-0.174,0.418-0.208,0.904-0.208,1.322v9.92h-5.186v-11.59H231.883z"/>
				<path fill="#11314C" d="M269.961,307.652c5.117,0,8.701,3.41,8.701,8.875c0,6.369-4.872,8.91-9.118,8.91
					c-4.873,0-8.667-3.271-8.667-8.875C260.878,310.819,264.95,307.652,269.961,307.652z M269.787,321.643
					c2.297,0,3.411-2.262,3.411-5.045c0-2.402-0.835-5.188-3.411-5.188c-2.61,0-3.445,2.784-3.445,5.15
					C266.342,319.277,267.456,321.643,269.787,321.643z"/>
				<path fill="#11314C" d="M281.866,319.973v-19.631h5.324v9.711h0.07c1.009-1.461,2.749-2.4,5.151-2.4
					c4.07,0,7.064,3.376,7.029,8.598c0,6.125-3.897,9.188-7.83,9.188c-1.949,0-3.863-0.73-5.048-2.75h-0.068l-0.243,2.367h-4.524
					C281.797,323.941,281.866,321.922,281.866,319.973z M290.394,321.26c2.264,0,3.655-1.74,3.655-4.803
					c0-2.646-1.184-4.732-3.655-4.732c-1.462,0-2.749,1.078-3.098,2.609c-0.069,0.313-0.104,0.661-0.104,1.01v2.471
					c0,0.349,0.035,0.662,0.104,0.939C287.645,320.182,288.863,321.26,290.394,321.26z"/>
				<path fill="#11314C" d="M302.577,303.301c0-1.531,1.112-2.68,2.783-2.68c1.705,0,2.784,1.148,2.784,2.68
					c0.035,1.463-1.079,2.646-2.854,2.646C303.621,305.947,302.577,304.764,302.577,303.301z M302.681,308.034h5.325v17.021h-5.325
					V308.034z"/>
				<path fill="#11314C" d="M312.218,300.342h5.325v24.713h-5.325V300.342z"/>
				<path fill="#11314C" d="M321.651,303.301c0-1.531,1.113-2.68,2.784-2.68c1.705,0,2.784,1.148,2.784,2.68
					c0.035,1.463-1.079,2.646-2.854,2.646C322.695,305.947,321.651,304.764,321.651,303.301z M321.755,308.034h5.325v17.021h-5.325
					V308.034z"/>
				<path fill="#11314C" d="M340.202,313.707v-0.242c0-0.906-0.487-2.193-3.133-2.193c-1.739,0-3.516,0.627-4.663,1.287
					l-0.976-3.375c1.185-0.696,3.517-1.531,6.613-1.531c5.673,0,7.448,3.341,7.448,7.344v5.917c0,1.636,0.104,3.167,0.277,4.142
					h-4.769l-0.313-1.67h-0.104c-1.113,1.322-2.854,2.053-4.872,2.053c-3.446,0-5.499-2.471-5.499-5.186
					C330.214,315.797,334.182,313.707,340.202,313.707z M337.558,321.713c1.287,0,2.366-0.869,2.715-1.949
					c0.104-0.244,0.104-0.592,0.104-0.869v-1.914c-2.819,0.033-4.942,0.695-4.942,2.715
					C335.435,321.053,336.339,321.713,337.558,321.713z M339.089,300.656h5.29l-4.524,5.256h-4.106L339.089,300.656z"/>
				<path fill="#11314C" d="M349.671,313.639c0-2.506-0.034-4.143-0.139-5.604h4.56l0.209,3.134h0.139
					c0.87-2.507,2.924-3.517,4.596-3.517c0.486,0,0.729,0,1.147,0.069v4.978c-0.418-0.069-0.87-0.14-1.462-0.14
					c-1.914,0-3.271,1.043-3.62,2.681c-0.068,0.349-0.104,0.8-0.104,1.183v8.633h-5.325L349.671,313.639L349.671,313.639z"/>
				<path fill="#11314C" d="M362.794,303.301c0-1.531,1.113-2.68,2.784-2.68c1.705,0,2.783,1.148,2.783,2.68
					c0.035,1.463-1.078,2.646-2.854,2.646C363.838,305.947,362.794,304.764,362.794,303.301z M362.897,308.034h5.325v17.021h-5.325
					V308.034z"/>
				<path fill="#11314C" d="M381.346,313.707v-0.242c0-0.906-0.487-2.193-3.132-2.193c-1.74,0-3.516,0.627-4.664,1.287l-0.975-3.375
					c1.184-0.696,3.516-1.531,6.612-1.531c5.673,0,7.448,3.341,7.448,7.344v5.917c0,1.636,0.104,3.167,0.278,4.142h-4.77
					l-0.313-1.67h-0.104c-1.112,1.322-2.854,2.053-4.872,2.053c-3.445,0-5.499-2.471-5.499-5.186
					C371.357,315.797,375.325,313.707,381.346,313.707z M378.701,321.713c1.287,0,2.365-0.869,2.715-1.949
					c0.104-0.244,0.104-0.592,0.104-0.869v-1.914c-2.818,0.033-4.941,0.695-4.941,2.715
					C376.578,321.053,377.482,321.713,378.701,321.713z"/>
				<path fill="#11314C" d="M390.813,320.426c0.976,0.592,2.994,1.287,4.525,1.287c1.601,0,2.297-0.521,2.297-1.428
					c0-0.87-0.557-1.287-2.471-1.947c-3.552-1.185-4.873-3.099-4.873-5.117c0-3.201,2.68-5.568,6.926-5.568
					c1.984,0,3.759,0.451,4.804,0.975l-0.939,3.654c-0.767-0.383-2.229-0.975-3.688-0.975c-1.288,0-2.02,0.557-2.02,1.393
					c0,0.801,0.662,1.219,2.75,1.949c3.237,1.113,4.595,2.748,4.629,5.255c0,3.168-2.506,5.534-7.379,5.534
					c-2.229,0-4.246-0.521-5.499-1.219L390.813,320.426z"/>
				<path fill="#11314C" d="M413.508,313.5c0-7.275,4.63-12.287,11.521-12.287c7.065,0,11.033,5.221,11.033,12.078
					c0,7.865-5.187,12.145-11.485,12.145C417.789,325.438,413.508,320.53,413.508,313.5z M430.458,313.36
					c0-3.968-1.74-7.937-5.638-7.937c-3.726,0-5.709,3.586-5.709,7.971c0,4.352,2.054,7.832,5.674,7.832
					C428.544,321.227,430.458,317.605,430.458,313.36z"/>
				<path fill="#11314C" d="M444.8,331.946h-5.325v-18.203c0-2.228-0.068-4.106-0.139-5.708h4.629l0.244,2.367h0.068
					c1.288-1.811,3.202-2.75,5.674-2.75c3.725,0,7.101,3.236,7.101,8.666c0,6.195-3.968,9.119-7.762,9.119
					c-2.055,0-3.689-0.801-4.42-1.949h-0.07V331.946z M448.002,321.4c2.298,0,3.655-1.949,3.655-4.838c0-2.715-1.22-4.77-3.585-4.77
					c-1.497,0-2.819,1.148-3.169,2.682c-0.068,0.277-0.104,0.625-0.104,0.938v2.332c0,0.417,0.035,0.8,0.104,1.112
					C445.253,320.285,446.471,321.4,448.002,321.4z"/>
				<path fill="#11314C" d="M468.05,307.652c5.5,0,7.623,4.281,7.623,8.492c0,0.939-0.14,1.705-0.209,2.088H464.5
					c0.174,2.193,2.332,3.236,4.803,3.236c1.811,0,3.237-0.242,4.699-0.729l0.695,3.618c-1.739,0.697-3.897,1.08-6.16,1.08
					c-5.777,0-9.084-3.377-9.084-8.701C459.453,312.42,462.133,307.652,468.05,307.652z M470.73,314.613
					c0-1.253-0.592-3.445-2.992-3.445c-2.229,0-3.134,2.053-3.272,3.445H470.73z"/>
				<path fill="#11314C" d="M478.771,313.465c0-2.123-0.068-3.898-0.139-5.431h4.629l0.244,2.367h0.104
					c0.696-1.114,2.402-2.75,5.257-2.75c3.479,0,6.091,2.297,6.091,7.31v10.094h-5.29v-9.433c0-2.192-0.801-3.688-2.68-3.688
					c-1.462,0-2.332,1.008-2.682,1.982c-0.139,0.313-0.209,0.836-0.209,1.323v9.815h-5.325V313.465L478.771,313.465z"/>
				<path fill="#11314C" d="M507.975,319.59c1.394,0.73,3.62,1.463,5.883,1.463c2.438,0,3.725-1.01,3.725-2.541
					c0-1.428-1.113-2.297-3.897-3.271c-3.934-1.428-6.509-3.516-6.509-6.962c0-4.002,3.376-7.03,8.875-7.03
					c2.715,0,4.629,0.521,5.986,1.148l-1.148,4.281c-0.938-0.418-2.609-1.113-4.907-1.113c-2.297,0-3.41,1.078-3.41,2.262
					c0,1.462,1.321,2.158,4.351,3.307c4.142,1.531,6.057,3.689,6.057,6.996c0,3.934-2.959,7.309-9.433,7.309
					c-2.68,0-5.325-0.729-6.647-1.461L507.975,319.59z"/>
				<path fill="#11314C" d="M534.775,307.652c5.117,0,8.701,3.41,8.701,8.875c0,6.369-4.872,8.91-9.118,8.91
					c-4.872,0-8.667-3.271-8.667-8.875C525.691,310.819,529.764,307.652,534.775,307.652z M534.602,321.643
					c2.297,0,3.411-2.262,3.411-5.045c0-2.402-0.835-5.188-3.411-5.188c-2.609,0-3.444,2.784-3.444,5.15
					C531.156,319.277,532.27,321.643,534.602,321.643z"/>
				<path fill="#11314C" d="M546.646,308.034h5.325v9.119c0,2.472,0.73,4.003,2.646,4.003c1.427,0,2.297-0.939,2.645-1.846
					c0.104-0.313,0.174-0.695,0.174-1.148v-10.128h5.325v11.591c0,2.191,0.07,4.002,0.141,5.43h-4.63l-0.243-2.401h-0.069
					c-0.767,1.185-2.332,2.784-5.36,2.784c-3.376,0-5.951-2.02-5.951-7.414v-9.989H546.646z"/>
				<path fill="#11314C" d="M566.973,313.639c0-2.506-0.034-4.143-0.139-5.604h4.56l0.209,3.134h0.14
					c0.869-2.507,2.924-3.517,4.595-3.517c0.487,0,0.729,0,1.147,0.069v4.978c-0.418-0.069-0.869-0.14-1.462-0.14
					c-1.914,0-3.271,1.043-3.62,2.681c-0.068,0.349-0.104,0.8-0.104,1.183v8.633h-5.325L566.973,313.639L566.973,313.639z"/>
				<path fill="#11314C" d="M588.658,307.652c1.427,0,2.958,0.242,4.071,0.66l-0.836,3.969c-0.626-0.313-1.564-0.557-2.958-0.557
					c-2.784,0-4.595,1.982-4.56,4.769c0,3.132,2.089,4.804,4.629,4.804c1.288,0,2.228-0.244,3.063-0.558l0.626,3.897
					c-0.975,0.418-2.715,0.801-4.732,0.801c-5.499,0-9.016-3.377-9.016-8.735C578.947,311.725,582.358,307.652,588.658,307.652z"/>
				<path fill="#11314C" d="M602.86,307.652c5.5,0,7.623,4.281,7.623,8.492c0,0.939-0.14,1.705-0.209,2.088h-10.964
					c0.174,2.193,2.332,3.236,4.803,3.236c1.812,0,3.237-0.242,4.699-0.729l0.696,3.618c-1.74,0.697-3.898,1.08-6.161,1.08
					c-5.777,0-9.084-3.377-9.084-8.701C594.264,312.42,596.943,307.652,602.86,307.652z M605.541,314.613
					c0-1.253-0.592-3.445-2.993-3.445c-2.229,0-3.133,2.053-3.272,3.445H605.541z"/>
			</g>
		</g>
		<g>
			<path fill="#11314C" d="M-98.814,214.617V337.35c0,0.828-0.672,1.5-1.5,1.5c-0.829,0-1.5-0.672-1.5-1.5V214.617
				c0-0.828,0.671-1.5,1.5-1.5C-99.486,213.117-98.814,213.789-98.814,214.617z"/>
		</g>
	</g>
</g>
</svg>
